<svg width="48" height="48" viewBox="0 0 48 48" fill="none" xmlns="http://www.w3.org/2000/svg">
  <!-- Open Plato swan logo -->
  <path d="M12 36C12 36 14 32 18 30C22 28 26 28 28 26C30 24 32 20 32 16C32 12 30 8 26 6C22 4 18 6 16 10C14 14 14 18 16 22" stroke="currentColor" stroke-width="2" stroke-linecap="round" stroke-linejoin="round"/>
  <path d="M16 22C16 22 12 24 10 28C8 32 8 36 12 38C16 40 22 40 28 38C34 36 38 32 40 28" stroke="currentColor" stroke-width="2" stroke-linecap="round" stroke-linejoin="round"/>
  <circle cx="24" cy="10" r="2" fill="currentColor"/>
</svg>
